<svg xmlns="http://www.w3.org/2000/svg" viewBox="0 0 549.43 445.23"><defs><style>.cls-1{fill:#b4d334;}.cls-2{fill:#006838;}.cls-3{fill:#e75229;}.cls-4{fill:#e5816a;}</style></defs><g id="Layer_2" data-name="Layer 2"><g id="Layer_1-2" data-name="Layer 1"><path class="cls-1" d="M276.77.11C143.34-3.68,3.39,94.31.06,195.12c-1.67,50.69,31.55,91.37,63.46,130.44C86.7,354,151.1,432.81,242.85,443.62c136.91,16.13,330.22-90.79,304.21-237.47C526.51,90.31,384.85,3.18,276.77.11Z"/><path class="cls-2" d="M0,319.15c7.13-12.75,13.18-24.64,18.15-38.47l2.38.43c4.11,35.66,12.32,47.55,28.1,47.55S74.56,314,74.78,297.75c0-9.94-2.38-16.64-9.29-27.23l-12.32-19C47.33,242.64,43,234.43,43,223c0-19.45,14.05-38.69,39.77-46l1.08,1.51c-9.73,8.21-12.54,16.86-12.54,27.66,0,10.16,5,19,9.94,27.24l13,20.74c7.56,12.11,11.24,19.67,11.24,31.77,0,26.8-21.83,45.39-57.49,45.39C33.72,331.25,16.43,327.36,0,319.15Zm86.45-85.8c-5.62-8.87-10.59-18.59-10.59-28.32,0-16.42,11-30.26,34.15-30.26a86.68,86.68,0,0,1,35.66,7.79,168,168,0,0,0-16.21,36.09l-2.59-.22c-3.89-30.47-13.19-40-23.78-40C88.4,178.45,78,189.69,78,205c0,8.86,4.54,18.16,10.16,27l7.35,11.24-2,1.29Z"/><path class="cls-2" d="M168.55,255.64c-6.45,0-11.92,3.6-17.05,9.46,1.37-2.69,2.75-5.37,4.13-8L154.18,256c-6.58,2.25-14.61,2.41-22.32,1l-48.5,107,1.44,1c6.75-8.84,15.58-10.44,23.45-9q8.84-19.17,17.47-37.69a20.68,20.68,0,0,0-.21,2.68c0,6.43,5,10,13.49,10a34.75,34.75,0,0,0,21-7.23c14.78-10.92,25.7-32.28,25.7-49.78C185.74,263,179.31,255.64,168.55,255.64ZM144.3,316.51c-4.33,6.1-8.83,9.79-12.52,9.79-3.21,0-4.5-2.08-4.5-6.1a33.42,33.42,0,0,1,1.36-8.26c6.27-13.29,12.5-26.25,18.79-38.79,4.66-6.83,8.74-10.77,12.29-10.77,3.05,0,4.34,2.57,4.34,6.59C164.06,279.89,153.94,303,144.3,316.51Z"/><path class="cls-2" d="M182.47,312.65c0-16.38,9.8-37.42,24.09-48.82,6.75-5.46,13.17-8.19,21.52-8.19,9,0,14.62,3.53,14.62,10,0,7.87-6.26,24.25-15.42,40.15-8.35,14.61-16.7,25.05-27.62,25.05S182.47,323.57,182.47,312.65Zm43.37-7.55c8.67-14.93,14.93-30.83,14.93-38.86,0-4-1.44-6.1-4.66-6.1-3.69,0-7.87,3.69-12.36,9.95C214.11,283.42,204,306.55,204,317.47c0,4,1.45,6.58,4.5,6.58C213.31,324.05,218.93,316.83,225.84,305.1Zm2.4,13.65c0-5.29,2.25-11.24,6.27-20.07l18.79-41.76c8.35,1.61,15.58,1.45,22.8-1l1.29,1.13-23,49.62c-4.65,9.8-6.42,14.77-6.42,17.51,0,1.92,1,3,2.73,3,2.89,0,6.74-3.54,10.92-9.32l1.28,1c-5.78,7.86-9.79,11.88-19.11,11.88C234.67,330.8,228.24,326.78,228.24,318.75Z"/><path class="cls-2" d="M259.24,346.22c0-7.07,5.14-13,14.29-15.58-3.21-2.57-4.5-5.78-4.18-10.28.49-6.9,5.46-14.77,20.08-18.15A18.26,18.26,0,0,1,283,287.76c0-11.24,7.38-22.48,17.18-27.46a39.48,39.48,0,0,1,20.07-4l.16,1.13c-11.72,6.58-18.95,28.9-18.95,40.15,0,6.58,2.73,8.83,6.75,8.83,3.85,0,7.39-2.89,10.92-8.35,5.78-8.67,10.44-22.49,10.44-30.36,0-3.69-1.29-6.42-4.66-6.42-5.46,0-13.17,10-17.82,27.3h-1.45c5.14-19.59,13.33-31.64,26-31.64A19.67,19.67,0,0,1,342.43,260c3.85-4,4.65-11.25,3.37-16.55,6.1.49,11.56.65,17.34-1.12l1.13.8c-2.41,7.71-10.28,14.3-20.56,18,3.53,2.89,5.3,6.42,5.3,12.53,0,9.79-5.14,22.16-16.38,28.42C326.69,305.59,318,308,308.86,308c-7.39,0-13.49-1.6-17.83-4.65-5,1.44-6.9,3.85-6.9,6.58,0,3.21,2.73,4.18,11.72,5.78l16.71,3.38c14.29,2.73,19.91,8,19.91,17.5,0,16.06-17.18,25.22-42.24,25.22C271,361.8,259.24,356.82,259.24,346.22Zm31.31,14c17.35,0,24.57-5.3,24.57-12.37,0-4.81-3.53-7.38-10.92-8.83l-18.63-3.37c-4.49-.8-8-1.93-10.59-3.86-10.12,2.73-14,8.68-14,14.46C261,355.37,271.28,360.19,290.55,360.19Z"/><path class="cls-2" d="M350.29,318.75c0-5.78,2.57-12.36,7.07-22l18.47-39.83c8.51,1.45,16.22,1.45,23.61-1l1.28,1.13-23,47.69c-5.3,10.76-7.39,16.38-7.39,19.6,0,1.92,1,2.89,2.57,2.89,3.05,0,6.9-3.54,11.24-9.32l1.28,1c-5.78,7.54-9.95,11.88-19.27,11.88C357,330.8,350.29,326.78,350.29,318.75Zm35.17-81.9c0-6.91,6.11-11.88,12.37-11.88,6.42,0,10.12,4.17,10.12,9.47,0,6.26-5.78,11.72-12.21,11.72S385.46,242,385.46,236.85Z"/><path class="cls-2" d="M397.83,307.67c0-14.13,8.51-32.92,22.48-43.2,8.19-5.78,15.9-8,27.14-8.19l.32,1.29c-5.13,3.05-10.11,8.19-14.29,14.93-7.55,11.24-12.53,27-12.69,37.58,0,11.24,4.82,15.42,11.89,15.42,6.74,0,13-5.14,19.91-16.22l1.29.8C446,324.22,434.93,330.8,423,330.8,406,330.8,397.83,320.36,397.83,307.67Zm38.54-33.56c6.43-10.76,13.81-16.7,23.61-16.7,5.46,0,9,.8,11.88,2.41a137.77,137.77,0,0,0-10.76,23.44l-1.44.64C456.77,268.49,454.36,263,450,263c-2.73,0-7.54,4-12.36,11.88-5,8.19-10.44,19.92-12.05,32.76H424A83.75,83.75,0,0,1,436.37,274.11Z"/><path class="cls-2" d="M460.22,318.75c0-5.78,2.57-12.36,7.07-22l18.47-39.83c8.51,1.45,16.22,1.45,23.6-1l1.29,1.13-23,47.69c-5.3,10.76-7.38,16.38-7.38,19.6,0,1.92,1,2.89,2.57,2.89,3.05,0,6.9-3.54,11.24-9.32l1.28,1c-5.78,7.54-10,11.88-19.27,11.88C467,330.8,460.22,326.78,460.22,318.75Zm35.17-81.9c0-6.91,6.11-11.88,12.37-11.88,6.42,0,10.12,4.17,10.12,9.47,0,6.26-5.79,11.72-12.21,11.72S495.39,242,495.39,236.85Z"/><path class="cls-3" d="M381,135.91c15,35.18-7.25,76.82-52.71,96.19s-101.51,9.54-116.5-25.64-11-73.75,62.13-97.78C320.83,93.25,366,100.72,381,135.91Z"/><path class="cls-2" d="M277.83,143.21s-2.76,6.07-18.81,11.63c2.69,3.53,18.28-3.11,18.28-3.11l1.49,14.66L288,148.88s10.82,5.17,22.5-3c-14-2.76-16.39-4.28-16.39-4.28s60.79-16.33,55.4-55.48c-6.23,11.53-13.7,17.38-19.44,20.61s-10.35,4.17-18.15,9a74.9,74.9,0,0,0-14.18,11.35S332,93.15,306.52,53.63c-30.2,26.05-35.5,53.38-29.33,63,0,0-20.15.83-23.45-16.68C242.26,124.58,258.39,141.51,277.83,143.21Z"/><path class="cls-4" d="M375.94,139.21c-.08,5.49-26.82,79.57-71.25,90.75C388,209,375.94,139.21,375.94,139.21Z"/></g></g></svg>