<svg xmlns="http://www.w3.org/2000/svg" viewBox="0 0 676.41 703.91"><defs><style>.cls-1{fill:#e75229;}.cls-2{fill:#006838;}.cls-3{fill:#e5816a;}</style></defs><g id="Layer_2" data-name="Layer 2"><g id="Layer_1-2" data-name="Layer 1"><path class="cls-1" d="M659,307.64c56.05,131.56-27.11,287.26-197.1,359.69S82.35,703,26.3,571.46-14.89,295.69,258.65,205.82C434.2,148.15,603,176.07,659,307.64Z"/><path class="cls-2" d="M273.41,335s-10.34,22.68-70.36,43.49c10.07,13.19,68.37-11.65,68.37-11.65L277,421.63l34.33-65.48s40.45,19.32,84.11-11.2c-52.19-10.35-61.27-16-61.27-16s227.3-61.07,207.16-207.45c-23.29,43.09-51.24,65-72.72,77.07s-38.7,15.59-67.86,33.68a279.91,279.91,0,0,0-53,42.46S475.87,147.78,380.69,0C267.75,97.39,248,199.58,271,235.45c0,0-75.35,3.1-87.68-62.37C140.4,265.27,200.7,328.58,273.41,335Z"/><path class="cls-3" d="M640.26,320C640,340.52,540,617.53,373.83,659.34,685.24,581,640.26,320,640.26,320Z"/></g></g></svg>